<?xml version="1.0" standalone="no"?>
<!DOCTYPE svg PUBLIC "-//W3C//DTD SVG 20010904//EN"
 "http://www.w3.org/TR/2001/REC-SVG-20010904/DTD/svg10.dtd">
<svg version="1.0" xmlns="http://www.w3.org/2000/svg"
 width="434.000000pt" height="434.000000pt" viewBox="0 0 434.000000 434.000000"
 preserveAspectRatio="xMidYMid meet">
<metadata>
Created by potrace 1.11, written by Peter Selinger 2001-2013
</metadata>
<g transform="translate(0.000000,434.000000) scale(0.100000,-0.100000)"
fill="#000000" stroke="none">
<path d="M100 2170 l0 -2060 2070 0 2070 0 0 2060 0 2060 -2070 0 -2070 0 0
-2060z m2260 1730 c-10 -7 11 -10 69 -10 156 0 407 -47 606 -112 98 -32 93
-30 215 -86 414 -190 694 -532 790 -968 60 -274 44 -610 -41 -874 -99 -302
-332 -582 -625 -750 -135 -77 -326 -152 -484 -188 -117 -27 -140 -32 -205 -41
-179 -26 -236 -31 -380 -31 l-155 0 -87 -80 c-173 -159 -377 -270 -583 -318
-119 -28 -142 -32 -190 -32 -32 0 -49 -4 -45 -10 4 -7 -52 -10 -159 -10 -91 0
-166 3 -166 7 0 4 38 65 85 134 112 165 150 256 199 471 6 26 2 30 -72 67
-187 94 -376 248 -495 404 -187 246 -277 535 -277 891 0 271 42 468 143 675
182 375 517 635 992 769 39 11 84 23 100 26 17 3 52 10 79 16 108 22 254 40
330 40 56 0 76 3 66 10 -10 6 38 10 145 10 107 0 155 -4 145 -10z"/>
<path d="M2480 3462 c-251 -68 -419 -304 -514 -723 -5 -24 -10 -26 -77 -32
-81 -7 -153 -38 -183 -79 -14 -20 -21 -49 -24 -108 -2 -44 -2 -80 1 -80 4 0
29 9 56 19 57 23 171 54 177 48 2 -2 -9 -102 -25 -223 -53 -397 -67 -648 -41
-745 32 -119 106 -211 213 -264 38 -19 72 -33 74 -31 2 2 -4 55 -13 117 -29
197 -14 513 47 997 l22 172 104 0 c121 0 164 14 188 60 19 37 32 164 18 173
-6 4 -28 -2 -49 -12 -83 -40 -234 -56 -234 -25 0 39 54 255 81 322 53 132 140
242 207 262 108 31 159 -97 93 -235 -15 -33 -38 -69 -50 -80 -21 -18 -21 -20
-4 -26 10 -4 45 -8 78 -8 147 -2 258 111 258 264 0 180 -193 294 -403 237z"/>
</g>
</svg>
